<mxfile host="app.diagrams.net" modified="2020-07-29T08:33:36.702Z" agent="5.0 (Macintosh; Intel Mac OS X 10_15_6) AppleWebKit/537.36 (KHTML, like Gecko) Chrome/84.0.4147.89 Safari/537.36" etag="0UH9KTTs2ahWv0lFizqJ" version="13.5.4" type="github">
  <diagram id="f2c6BTOZW31LBwFTPRxc" name="Page-1">
    <mxGraphModel dx="1426" dy="794" grid="1" gridSize="10" guides="1" tooltips="1" connect="1" arrows="1" fold="1" page="1" pageScale="1" pageWidth="827" pageHeight="1169" math="0" shadow="0">
      <root>
        <mxCell id="0" />
        <mxCell id="1" parent="0" />
        <mxCell id="w12qTaHApypQh6yX7M40-4" style="edgeStyle=orthogonalEdgeStyle;rounded=0;orthogonalLoop=1;jettySize=auto;html=1;entryX=0.5;entryY=0;entryDx=0;entryDy=0;" edge="1" parent="1" source="w12qTaHApypQh6yX7M40-1" target="w12qTaHApypQh6yX7M40-3">
          <mxGeometry relative="1" as="geometry" />
        </mxCell>
        <mxCell id="w12qTaHApypQh6yX7M40-1" value="start" style="rounded=1;whiteSpace=wrap;html=1;" vertex="1" parent="1">
          <mxGeometry x="294" y="140" width="120" height="60" as="geometry" />
        </mxCell>
        <mxCell id="w12qTaHApypQh6yX7M40-2" value="end" style="rounded=1;whiteSpace=wrap;html=1;" vertex="1" parent="1">
          <mxGeometry x="190" y="540" width="120" height="60" as="geometry" />
        </mxCell>
        <mxCell id="w12qTaHApypQh6yX7M40-6" style="edgeStyle=orthogonalEdgeStyle;rounded=0;orthogonalLoop=1;jettySize=auto;html=1;entryX=0.5;entryY=0;entryDx=0;entryDy=0;" edge="1" parent="1" source="w12qTaHApypQh6yX7M40-3" target="w12qTaHApypQh6yX7M40-5">
          <mxGeometry relative="1" as="geometry" />
        </mxCell>
        <mxCell id="w12qTaHApypQh6yX7M40-9" value="N" style="edgeLabel;html=1;align=center;verticalAlign=middle;resizable=0;points=[];" vertex="1" connectable="0" parent="w12qTaHApypQh6yX7M40-6">
          <mxGeometry x="-0.5245" y="2" relative="1" as="geometry">
            <mxPoint as="offset" />
          </mxGeometry>
        </mxCell>
        <mxCell id="w12qTaHApypQh6yX7M40-7" style="edgeStyle=orthogonalEdgeStyle;rounded=0;orthogonalLoop=1;jettySize=auto;html=1;entryX=0.4;entryY=-0.067;entryDx=0;entryDy=0;entryPerimeter=0;" edge="1" parent="1" source="w12qTaHApypQh6yX7M40-3" target="w12qTaHApypQh6yX7M40-2">
          <mxGeometry relative="1" as="geometry" />
        </mxCell>
        <mxCell id="w12qTaHApypQh6yX7M40-8" value="Y" style="edgeLabel;html=1;align=center;verticalAlign=middle;resizable=0;points=[];" vertex="1" connectable="0" parent="w12qTaHApypQh6yX7M40-7">
          <mxGeometry x="-0.6099" y="1" relative="1" as="geometry">
            <mxPoint as="offset" />
          </mxGeometry>
        </mxCell>
        <mxCell id="w12qTaHApypQh6yX7M40-3" value="&amp;gt;0" style="rhombus;whiteSpace=wrap;html=1;" vertex="1" parent="1">
          <mxGeometry x="314" y="290" width="80" height="80" as="geometry" />
        </mxCell>
        <mxCell id="w12qTaHApypQh6yX7M40-5" value="end" style="rounded=1;whiteSpace=wrap;html=1;" vertex="1" parent="1">
          <mxGeometry x="410" y="540" width="120" height="60" as="geometry" />
        </mxCell>
      </root>
    </mxGraphModel>
  </diagram>
</mxfile>
